<svg width="34" height="34" viewBox="0 0 34 34" fill="none" xmlns="http://www.w3.org/2000/svg">
<g filter="url(#filter0_d_32_31)">
<path d="M25 3C25 1.89375 24.1063 1 23 1H11C9.89375 1 9 1.89375 9 3C9 4.10625 9.89375 5 11 5H23C24.1063 5 25 4.10625 25 3ZM31 11C31 9.89375 30.1063 9 29 9H5C3.89375 9 3 9.89375 3 11C3 12.1063 3.89375 13 5 13H29C30.1063 13 31 12.1063 31 11ZM3 27C3 28.1063 3.89375 29 5 29H29C30.1063 29 31 28.1063 31 27C31 25.8937 30.1063 25 29 25H5C3.89375 25 3 25.8937 3 27ZM25 19C25 17.8937 24.1063 17 23 17H11C9.89375 17 9 17.8937 9 19C9 20.1063 9.89375 21 11 21H23C24.1063 21 25 20.1063 25 19Z" fill="white"/>
</g>
<defs>
<filter id="filter0_d_32_31" x="0" y="0" width="34" height="34" filterUnits="userSpaceOnUse" color-interpolation-filters="sRGB">
<feFlood flood-opacity="0" result="BackgroundImageFix"/>
<feColorMatrix in="SourceAlpha" type="matrix" values="0 0 0 0 0 0 0 0 0 0 0 0 0 0 0 0 0 0 127 0" result="hardAlpha"/>
<feOffset dy="2"/>
<feGaussianBlur stdDeviation="1.5"/>
<feComposite in2="hardAlpha" operator="out"/>
<feColorMatrix type="matrix" values="0 0 0 0 0 0 0 0 0 0 0 0 0 0 0 0 0 0 0.2 0"/>
<feBlend mode="normal" in2="BackgroundImageFix" result="effect1_dropShadow_32_31"/>
<feBlend mode="normal" in="SourceGraphic" in2="effect1_dropShadow_32_31" result="shape"/>
</filter>
</defs>
</svg>
