<svg width="34" height="34" viewBox="0 0 34 34" fill="none" xmlns="http://www.w3.org/2000/svg">
<g filter="url(#filter0_d_32_27)">
<path d="M31 3C31 4.10625 30.1063 5 29 5H15C13.8937 5 13 4.10625 13 3C13 1.89375 13.8937 1 15 1H29C30.1063 1 31 1.89375 31 3ZM31 19C31 20.1063 30.1063 21 29 21H15C13.8937 21 13 20.1063 13 19C13 17.8937 13.8937 17 15 17H29C30.1063 17 31 17.8937 31 19ZM3 11C3 9.89375 3.89375 9 5 9H29C30.1063 9 31 9.89375 31 11C31 12.1063 30.1063 13 29 13H5C3.89375 13 3 12.1063 3 11ZM31 27C31 28.1063 30.1063 29 29 29H5C3.89375 29 3 28.1063 3 27C3 25.8937 3.89375 25 5 25H29C30.1063 25 31 25.8937 31 27Z" fill="white"/>
</g>
<defs>
<filter id="filter0_d_32_27" x="0" y="0" width="34" height="34" filterUnits="userSpaceOnUse" color-interpolation-filters="sRGB">
<feFlood flood-opacity="0" result="BackgroundImageFix"/>
<feColorMatrix in="SourceAlpha" type="matrix" values="0 0 0 0 0 0 0 0 0 0 0 0 0 0 0 0 0 0 127 0" result="hardAlpha"/>
<feOffset dy="2"/>
<feGaussianBlur stdDeviation="1.5"/>
<feComposite in2="hardAlpha" operator="out"/>
<feColorMatrix type="matrix" values="0 0 0 0 0 0 0 0 0 0 0 0 0 0 0 0 0 0 0.2 0"/>
<feBlend mode="normal" in2="BackgroundImageFix" result="effect1_dropShadow_32_27"/>
<feBlend mode="normal" in="SourceGraphic" in2="effect1_dropShadow_32_27" result="shape"/>
</filter>
</defs>
</svg>
