<svg width="34" height="34" viewBox="0 0 34 34" fill="none" xmlns="http://www.w3.org/2000/svg">
<g filter="url(#filter0_d_32_27)">
<path d="M3 3C3 4.10625 3.89375 5 5 5H19C20.1063 5 21 4.10625 21 3C21 1.89375 20.1063 1 19 1H5C3.89375 1 3 1.89375 3 3ZM3 19C3 20.1063 3.89375 21 5 21H19C20.1063 21 21 20.1063 21 19C21 17.8937 20.1063 17 19 17H5C3.89375 17 3 17.8937 3 19ZM31 11C31 9.89375 30.1063 9 29 9H5C3.89375 9 3 9.89375 3 11C3 12.1063 3.89375 13 5 13H29C30.1063 13 31 12.1063 31 11ZM3 27C3 28.1063 3.89375 29 5 29H29C30.1063 29 31 28.1063 31 27C31 25.8937 30.1063 25 29 25H5C3.89375 25 3 25.8937 3 27Z" fill="white"/>
</g>
<defs>
<filter id="filter0_d_32_27" x="0" y="0" width="34" height="34" filterUnits="userSpaceOnUse" color-interpolation-filters="sRGB">
<feFlood flood-opacity="0" result="BackgroundImageFix"/>
<feColorMatrix in="SourceAlpha" type="matrix" values="0 0 0 0 0 0 0 0 0 0 0 0 0 0 0 0 0 0 127 0" result="hardAlpha"/>
<feOffset dy="2"/>
<feGaussianBlur stdDeviation="1.5"/>
<feComposite in2="hardAlpha" operator="out"/>
<feColorMatrix type="matrix" values="0 0 0 0 0 0 0 0 0 0 0 0 0 0 0 0 0 0 0.2 0"/>
<feBlend mode="normal" in2="BackgroundImageFix" result="effect1_dropShadow_32_27"/>
<feBlend mode="normal" in="SourceGraphic" in2="effect1_dropShadow_32_27" result="shape"/>
</filter>
</defs>
</svg>
