<svg width="40" height="38" viewBox="0 0 40 38" fill="none" xmlns="http://www.w3.org/2000/svg">
<g filter="url(#filter0_d_32_29)">
<path d="M9.31256 13.1882C9.8581 11.6309 10.7437 10.1666 11.9906 8.91651C16.4186 4.45198 23.5955 4.45198 28.0235 8.91651L29.235 10.1452H26.805C25.5509 10.1452 24.5378 11.1666 24.5378 12.431C24.5378 13.6954 25.5509 14.7168 26.805 14.7168H34.7045H34.7329C35.9869 14.7168 37 13.6954 37 12.431V4.43055C37 3.16619 35.9869 2.14471 34.7329 2.14471C33.4788 2.14471 32.4657 3.16619 32.4657 4.43055V6.94497L31.2259 5.68776C25.0267 -0.562587 14.9804 -0.562587 8.7812 5.68776C7.05251 7.43072 5.80558 9.48083 5.04043 11.6738C4.62242 12.8667 5.24588 14.1668 6.42196 14.5883C7.59804 15.0097 8.89456 14.3811 9.31256 13.1953V13.1882ZM4.62951 19.3814C4.27527 19.4885 3.93519 19.6814 3.65889 19.9671C3.37549 20.2529 3.18421 20.5957 3.08502 20.9672C3.06376 21.0529 3.04251 21.1458 3.02834 21.2386C3.00708 21.3601 3 21.4815 3 21.6029V29.5748C3 30.8392 4.01313 31.8606 5.26714 31.8606C6.52115 31.8606 7.53428 30.8392 7.53428 29.5748V27.0675L8.7812 28.3176C14.9804 34.5608 25.0267 34.5608 31.2188 28.3176C32.9475 26.5746 34.2015 24.5245 34.9667 22.3387C35.3847 21.1458 34.7612 19.8457 33.5851 19.4242C32.409 19.0028 31.1125 19.6314 30.6945 20.8172C30.149 22.3744 29.2634 23.8388 28.0165 25.0888C23.5885 29.5534 16.4115 29.5534 11.9835 25.0888L11.9765 25.0817L10.765 23.8602H13.2021C14.4561 23.8602 15.4693 22.8387 15.4693 21.5744C15.4693 20.31 14.4561 19.2885 13.2021 19.2885H5.29548C5.18212 19.2885 5.06876 19.2957 4.95541 19.3099C4.84205 19.3242 4.73578 19.3457 4.62951 19.3814Z" fill="white"/>
</g>
<defs>
<filter id="filter0_d_32_29" x="0" y="0" width="40" height="38" filterUnits="userSpaceOnUse" color-interpolation-filters="sRGB">
<feFlood flood-opacity="0" result="BackgroundImageFix"/>
<feColorMatrix in="SourceAlpha" type="matrix" values="0 0 0 0 0 0 0 0 0 0 0 0 0 0 0 0 0 0 127 0" result="hardAlpha"/>
<feOffset dy="2"/>
<feGaussianBlur stdDeviation="1.5"/>
<feComposite in2="hardAlpha" operator="out"/>
<feColorMatrix type="matrix" values="0 0 0 0 0 0 0 0 0 0 0 0 0 0 0 0 0 0 0.2 0"/>
<feBlend mode="normal" in2="BackgroundImageFix" result="effect1_dropShadow_32_29"/>
<feBlend mode="normal" in="SourceGraphic" in2="effect1_dropShadow_32_29" result="shape"/>
</filter>
</defs>
</svg>
